# xmcd
#
# Track frame offsets:
# 150
# 23211
# 41349
# 61544
# 79588
# 100318
# 123994
# 146700
# 167275
# 185052
# 201221
#
# Disc length: 2990 seconds
#
# Revision: 1
# Processed by: cddbd v1.5.1PL0 Copyright (c) Steve Scherf et al.
# Submitted via: Easy CD Ripper 1.45
#
DISCID=890bac0b
DTITLE=Joe Cocker - Respect Yourself
DYEAR=2002
DGENRE=Blues
TTITLE0=You Can't Have My Heart
TTITLE1=Joe Cocker - Love Not War
TTITLE2=Joe Cocker - You Took It So Hard
TTITLE3=Joe Cocker - Never Tear Us Apart
TTITLE4=Joe Cocker - This Is Your Life
TTITLE5=Joe Cocker - Respect Yourself
TTITLE6=Joe Cocker - I'm Listening Now
TTITLE7=Joe Cocker - Leave A Light On
TTITLE8=Joe Cocker - It's Only Love
TTITLE9=Joe Cocker - Every Time It Rains
TTITLE10=Joe Cocker - Midnight Without You
EXTD=
EXTT0=
EXTT1=
EXTT2=
EXTT3=
EXTT4=
EXTT5=
EXTT6=
EXTT7=
EXTT8=
EXTT9=
EXTT10=
PLAYORDER=
